<svg width="150" height="150" viewBox="0 0 150 150" fill="none" xmlns="http://www.w3.org/2000/svg">
<path d="M15.3807 132.74H52.956C53.9286 132.74 54.843 132.361 55.5315 131.673L64.3955 122.809C65.0834 122.121 65.4623 121.206 65.4623 120.233V92.5704C65.4623 90.5619 63.8286 88.9282 61.8201 88.9282H15.3807C13.3722 88.9282 11.7385 90.5619 11.7385 92.5704V112.587C11.7385 113.803 12.724 114.788 13.9395 114.788C15.155 114.788 16.1405 113.803 16.1405 112.587V93.3302H61.0603V119.919L52.6414 128.338H16.1405V121.967C16.1405 120.752 15.155 119.766 13.9395 119.766C12.724 119.766 11.7385 120.752 11.7385 121.967V129.098C11.7385 131.106 13.3722 132.74 15.3807 132.74Z" fill="white"/>
<path d="M94.4682 131.673C95.1564 132.361 96.0708 132.74 97.0436 132.74H134.619C136.627 132.74 138.261 131.106 138.261 129.098V92.5704C138.261 90.5619 136.627 88.9282 134.619 88.9282H128.727C127.511 88.9282 126.526 89.9137 126.526 91.1292C126.526 92.3447 127.511 93.3302 128.727 93.3302H133.859V128.338H97.3582L88.9394 119.919V93.3302H119.347C120.563 93.3302 121.548 92.3447 121.548 91.1292C121.548 89.9137 120.563 88.9282 119.347 88.9282H88.1796C86.1711 88.9282 84.5374 90.5619 84.5374 92.5704V120.233C84.5374 121.206 84.9163 122.121 85.6042 122.809L94.4682 131.673Z" fill="white"/>
<path d="M150 24.1658C150 21.8439 149.096 19.6611 147.454 18.0192L137.245 7.81079C135.769 6.33438 133.806 5.52148 131.718 5.52148C129.63 5.52148 127.667 6.33467 126.191 7.81109C124.715 9.2875 123.901 11.2505 123.901 13.3385C123.901 15.4265 124.715 17.3894 126.191 18.8656L133.903 26.5775V66.5088L122.956 77.1896H26.8921L16.0971 66.657V42.627C16.0971 41.4115 15.1116 40.426 13.8961 40.426C12.6806 40.426 11.6951 41.4115 11.6951 42.627V67.5846C11.6951 68.1777 11.9346 68.7458 12.3589 69.1599L20.5885 77.1896H4.40195V24.3143C4.40195 23.1683 4.84831 22.0907 5.65885 21.2805L15.867 11.0723C17.1987 9.7409 19.3651 9.7409 20.6965 11.0723C22.0279 12.4038 22.0279 14.5701 20.6965 15.9019L12.3395 24.2579C11.9266 24.6706 11.6948 25.2305 11.6948 25.8142V33.2473C11.6948 34.4628 12.6803 35.4483 13.8958 35.4483C15.1113 35.4483 16.0968 34.4628 16.0968 33.2473V26.726L23.8087 19.0141C26.8563 15.9661 26.8563 11.0072 23.8087 7.95958C20.7608 4.91167 15.8018 4.91196 12.7542 7.95958L2.54609 18.1677C0.904161 19.8096 0 21.9924 0 24.3143V139.587C0 142.284 2.19423 144.478 4.89115 144.478H58.0151C59.3219 144.478 60.55 143.97 61.4735 143.046L74.6847 129.835C74.8584 129.661 75.1413 129.661 75.3147 129.835L88.5262 143.046C89.45 143.97 90.6784 144.478 91.9846 144.478H145.108C147.805 144.478 150 142.284 150 139.587V24.1658H150ZM137.641 69.0117C138.065 68.5973 138.305 68.0295 138.305 67.4364V25.666C138.305 25.0823 138.073 24.5224 137.66 24.1097L129.303 15.7528C128.659 15.1081 128.303 14.2503 128.303 13.3382C128.303 12.4261 128.659 11.5686 129.304 10.9233C129.949 10.2782 130.806 9.92314 131.718 9.92314C132.63 9.92314 133.488 10.2782 134.133 10.9233L144.341 21.1317C145.152 21.9422 145.598 23.0198 145.598 24.1655V77.1896H129.259L137.641 69.0117ZM145.598 139.587C145.598 139.857 145.379 140.077 145.109 140.077H91.9846C91.854 140.077 91.7311 140.025 91.6386 139.933L78.4272 126.722C77.4823 125.777 76.2409 125.304 74.9996 125.304C73.7582 125.304 72.5169 125.777 71.5719 126.722L58.3605 139.933C58.2695 140.024 58.1436 140.077 58.0148 140.077H4.89115C4.62146 140.077 4.40195 139.857 4.40195 139.587V81.5916H145.598V139.587H145.598Z" fill="white"/>
</svg>
