<svg width="150" height="150" viewBox="0 0 150 150" fill="none" xmlns="http://www.w3.org/2000/svg">
<g clip-path="url(#clip0)">
<path d="M147.804 121.131C149.017 121.131 150 120.148 150 118.935V52.5967C150 46.4082 144.966 41.3737 138.777 41.3737H128.586V10.842C128.586 7.42369 125.805 4.6427 122.387 4.6427H114.613C113.4 4.6427 112.417 5.62552 112.417 6.83845C112.417 8.05138 113.4 9.03419 114.613 9.03419H122.387C123.383 9.03419 124.194 9.84516 124.194 10.842V41.3737H116.809V17.7097C116.809 16.4968 115.826 15.514 114.613 15.514H35.6794C34.4665 15.514 33.4837 16.4968 33.4837 17.7097V41.3737H26.0984V10.842C26.0984 9.84516 26.9093 9.03419 27.9059 9.03419H105.256C106.469 9.03419 107.451 8.05138 107.451 6.83845C107.451 5.62552 106.469 4.6427 105.256 4.6427H27.9056C24.4873 4.6427 21.7066 7.42369 21.7066 10.842V41.3737H11.2226C5.03441 41.3737 0 46.4082 0 52.5967V134.134C0 140.323 5.03441 145.357 11.2229 145.357H138.777C144.966 145.357 150 140.323 150 134.134V128.293C150 127.08 149.017 126.097 147.804 126.097C146.591 126.097 145.609 127.08 145.609 128.293V134.134C145.609 137.901 142.544 140.966 138.777 140.966H11.2229C7.45617 140.966 4.39149 137.901 4.39149 134.134V79.376H14.5449C15.7579 79.376 16.7407 78.3932 16.7407 77.1802C16.7407 75.9673 15.7579 74.9845 14.5449 74.9845H4.39149V52.5967C4.39149 48.8299 7.45617 45.7652 11.2229 45.7652H138.777C142.544 45.7652 145.609 48.8299 145.609 52.5967V74.9845H103.148C96.6035 66.7176 86.4843 61.4039 75.1461 61.4039C63.8078 61.4039 53.6887 66.7176 47.1445 74.9845H23.9026C22.6897 74.9845 21.7069 75.9673 21.7069 77.1802C21.7069 78.3932 22.6897 79.376 23.9026 79.376H44.1679C41.1656 84.6024 39.447 90.656 39.447 97.1036C39.447 116.788 55.4617 132.803 75.1464 132.803C94.8311 132.803 110.846 116.788 110.846 97.1036C110.846 90.656 109.127 84.6024 106.125 79.376H145.608V118.935C145.609 120.148 146.591 121.131 147.804 121.131V121.131ZM37.8752 19.9055H112.417V41.3737H37.8752V19.9055ZM75.1464 128.411C57.8831 128.411 43.8385 114.367 43.8385 97.1036C43.8385 79.8406 57.8834 65.7957 75.1464 65.7957C92.4094 65.7957 106.454 79.8406 106.454 97.1036C106.454 114.367 92.4096 128.411 75.1464 128.411Z" fill="white"/>
<path d="M75.1464 70.1869C60.3046 70.1869 48.23 82.2614 48.23 97.1032C48.23 111.945 60.3046 124.02 75.1464 124.02C89.9882 124.02 102.063 111.945 102.063 97.1032C102.063 82.2614 89.9882 70.1869 75.1464 70.1869V70.1869ZM75.1464 119.628C62.7261 119.628 52.6215 109.524 52.6215 97.1035C52.6215 84.6835 62.7264 74.5787 75.1464 74.5787C87.5664 74.5787 97.6712 84.6835 97.6712 97.1035C97.6712 109.524 87.5667 119.628 75.1464 119.628Z" fill="white"/>
<path d="M75.1464 83.9592C67.8987 83.9592 62.0023 89.8558 62.0023 97.1033C62.0023 104.351 67.899 110.247 75.1464 110.247C82.3938 110.247 88.2904 104.351 88.2904 97.1033C88.2904 89.8558 82.3941 83.9592 75.1464 83.9592ZM75.1464 105.856C70.3201 105.856 66.3938 101.93 66.3938 97.1036C66.3938 92.2773 70.3201 88.351 75.1464 88.351C79.9726 88.351 83.8989 92.2773 83.8989 97.1036C83.8989 101.93 79.9726 105.856 75.1464 105.856Z" fill="white"/>
<path d="M139.309 60.9721C139.309 55.4977 134.855 51.0438 129.381 51.0438C123.906 51.0438 119.452 55.4977 119.452 60.9721C119.452 66.4468 123.906 70.9007 129.381 70.9007C134.855 70.9007 139.309 66.4468 139.309 60.9721ZM123.844 60.9721C123.844 57.9191 126.328 55.4353 129.381 55.4353C132.434 55.4353 134.918 57.9191 134.918 60.9721C134.918 64.0254 132.434 66.5092 129.381 66.5092C126.328 66.5092 123.844 64.0254 123.844 60.9721Z" fill="white"/>
<path d="M112.907 63.1679C114.119 63.1679 115.102 62.185 115.102 60.9721C115.102 59.7592 114.119 58.7764 112.907 58.7764H111.562C110.349 58.7764 109.366 59.7592 109.366 60.9721C109.366 62.185 110.349 63.1679 111.562 63.1679H112.907Z" fill="white"/>
<path d="M14.1146 118.991C11.2902 118.991 8.99203 121.29 8.99203 124.114V131.323C8.99203 134.147 11.2902 136.445 14.1146 136.445H30.7577C33.5821 136.445 35.8803 134.147 35.8803 131.323V124.114C35.8803 121.29 33.5821 118.991 30.7577 118.991H14.1146ZM31.4888 124.114V131.323C31.4888 131.726 31.1609 132.054 30.7577 132.054H14.1146C13.7114 132.054 13.3835 131.726 13.3835 131.323V124.114C13.3835 123.711 13.7114 123.383 14.1146 123.383H30.7577C31.1609 123.383 31.4888 123.711 31.4888 124.114Z" fill="white"/>
</g>
<defs>
<clipPath id="clip0">
<rect width="150" height="150" fill="white"/>
</clipPath>
</defs>
</svg>
