<svg id="Capa_1" enable-background="new 0 0 512.354 512.354" height="512" viewBox="0 0 512.354 512.354" width="512" xmlns="http://www.w3.org/2000/svg"><g><path d="m504.854 413.747c4.143 0 7.5-3.357 7.5-7.5v-226.593c0-21.138-17.196-38.334-38.334-38.334h-34.81v-104.287c0-11.676-9.499-21.175-21.174-21.175h-26.553c-4.143 0-7.5 3.357-7.5 7.5s3.357 7.5 7.5 7.5h26.553c3.404 0 6.174 2.77 6.174 6.175v104.287h-25.227v-80.829c0-4.143-3.357-7.5-7.5-7.5h-269.613c-4.143 0-7.5 3.357-7.5 7.5v80.829h-25.226v-104.287c0-3.405 2.77-6.175 6.174-6.175h264.203c4.143 0 7.5-3.357 7.5-7.5s-3.357-7.5-7.5-7.5h-264.204c-11.676 0-21.174 9.499-21.174 21.175v104.287h-35.81c-21.137 0-38.333 17.196-38.333 38.334v278.508c0 21.138 17.196 38.334 38.334 38.334h435.686c21.138 0 38.334-17.196 38.334-38.334v-19.952c0-4.143-3.357-7.5-7.5-7.5s-7.5 3.357-7.5 7.5v19.952c0 12.866-10.468 23.334-23.334 23.334h-435.686c-12.866 0-23.334-10.468-23.334-23.334v-187.038h34.681c4.143 0 7.5-3.357 7.5-7.5s-3.357-7.5-7.5-7.5h-34.681v-76.47c0-12.866 10.468-23.334 23.334-23.334h435.686c12.866 0 23.334 10.468 23.334 23.334v76.47h-145.033c-22.353-28.237-56.917-46.387-95.645-46.387s-73.292 18.15-95.645 46.387h-79.387c-4.143 0-7.5 3.357-7.5 7.5s3.357 7.5 7.5 7.5h69.22c-10.255 17.852-16.125 38.529-16.125 60.552 0 67.237 54.701 121.938 121.938 121.938s121.938-54.701 121.938-121.938c0-22.023-5.87-42.7-16.125-60.552h134.863v135.123c.001 4.142 3.358 7.5 7.501 7.5zm-375.484-345.756h254.613v73.329h-254.613zm127.307 370.623c-58.966 0-106.938-47.973-106.938-106.938s47.973-106.938 106.938-106.938 106.938 47.973 106.938 106.938-47.972 106.938-106.938 106.938z"/><path d="m256.677 239.737c-50.695 0-91.938 41.243-91.938 91.938s41.243 91.938 91.938 91.938 91.938-41.243 91.938-91.938-41.243-91.938-91.938-91.938zm0 168.877c-42.424 0-76.938-34.515-76.938-76.938s34.515-76.938 76.938-76.938 76.938 34.515 76.938 76.938-34.514 76.938-76.938 76.938z"/><path d="m256.677 286.779c-24.756 0-44.896 20.141-44.896 44.896s20.141 44.896 44.896 44.896 44.896-20.141 44.896-44.896-20.14-44.896-44.896-44.896zm0 74.793c-16.485 0-29.896-13.411-29.896-29.896s13.411-29.896 29.896-29.896 29.896 13.411 29.896 29.896-13.411 29.896-29.896 29.896z"/><path d="m475.838 208.262c0-18.699-15.213-33.912-33.913-33.912-18.699 0-33.912 15.213-33.912 33.912 0 18.7 15.213 33.913 33.912 33.913 18.7 0 33.913-15.213 33.913-33.913zm-52.825 0c0-10.428 8.484-18.912 18.912-18.912 10.429 0 18.913 8.484 18.913 18.912 0 10.429-8.484 18.913-18.913 18.913-10.428 0-18.912-8.484-18.912-18.913z"/><path d="m385.654 215.762c4.143 0 7.5-3.357 7.5-7.5s-3.357-7.5-7.5-7.5h-4.594c-4.143 0-7.5 3.357-7.5 7.5s3.357 7.5 7.5 7.5z"/><path d="m48.211 406.438c-9.647 0-17.497 7.85-17.497 17.497v24.623c0 9.647 7.85 17.497 17.497 17.497h56.848c9.647 0 17.497-7.85 17.497-17.497v-24.623c0-9.647-7.85-17.497-17.497-17.497zm59.345 17.497v24.623c0 1.377-1.12 2.497-2.497 2.497h-56.848c-1.377 0-2.497-1.12-2.497-2.497v-24.623c0-1.377 1.12-2.497 2.497-2.497h56.848c1.377 0 2.497 1.12 2.497 2.497z"/></g></svg>