<svg width="150" height="150" viewBox="0 0 150 150" fill="none" xmlns="http://www.w3.org/2000/svg">
<g clip-path="url(#clip0)">
<path d="M129.566 145.606H129.15V136.892C129.15 133.729 127.575 130.928 125.169 129.228C128.213 127.2 130.144 123.75 130.144 119.929V102.032C130.144 97.3515 127.251 93.3371 123.161 91.6755V86.6431C123.161 85.4297 122.177 84.446 120.964 84.446C119.75 84.446 118.767 85.4297 118.767 86.6431V90.857H105.651C104.947 89.9205 103.845 89.3613 102.668 89.3613H100.63V86.5288C100.63 83.4187 98.0991 80.8885 94.9889 80.8885H86.6305V73.6717H103.166C106.866 73.6717 110.026 71.1524 110.851 67.5454L118.766 32.9324V77.2801C118.766 78.4935 119.75 79.4772 120.963 79.4772C122.177 79.4772 123.16 78.4935 123.16 77.2801V13.7184L123.984 10.117C124.329 8.61011 123.934 7.01007 122.928 5.83684L119.392 1.71107C118.46 0.623671 117.104 0 115.672 0H33.9539C32.5217 0 31.1657 0.623671 30.2341 1.71077L26.6977 5.83655C25.6918 7.00978 25.2972 8.61011 25.6417 10.117L26.4654 13.7184V128.034C22.804 129.313 20.1695 132.8 20.1695 136.892V145.623C19.0807 145.754 18.2364 146.679 18.2364 147.803C18.2364 149.016 19.2198 150 20.4335 150H129.567C130.78 150 131.764 149.016 131.764 147.803C131.764 146.59 130.78 145.606 129.566 145.606V145.606ZM109.591 104.039H116.962V118.367L114.792 118.918C114.002 113.685 112.233 108.625 109.591 104.039V104.039ZM125.75 102.032V119.929C125.75 123.034 123.649 125.736 120.639 126.501L116.663 127.51H115.264V125.18C115.264 124.567 115.25 123.954 115.223 123.342L119.558 122.241C120.617 121.972 121.357 121.021 121.357 119.929V102.031C121.357 100.716 120.286 99.645 118.97 99.645H106.677C106.495 99.4044 106.31 99.1657 106.122 98.929L105.019 97.5375L105.858 95.2511H118.97C122.709 95.2511 125.75 98.2927 125.75 102.032V102.032ZM100.811 99.3016L102.679 101.659C104.321 103.731 105.734 105.967 106.902 108.32C99.41 110.836 91.2827 110.815 83.7714 108.215L76.7903 105.798C67.0775 102.436 56.5621 102.898 47.181 107.098L42.2552 109.304C43.5067 106.589 45.0774 104.018 46.9472 101.658L48.8153 99.3013C49.2905 98.7017 49.4197 97.8979 49.156 97.1796L47.899 93.7551H101.727L100.47 97.1796C100.207 97.8984 100.335 98.702 100.811 99.3016V99.3016ZM96.2354 86.5288V89.3613H53.3905V86.5288C53.3905 85.8416 53.9497 85.2827 54.6369 85.2827H65.1925H84.4334H94.9889C95.6762 85.2827 96.2354 85.8419 96.2354 86.5288ZM82.2363 80.8885H67.3895V73.6717H82.2363V80.8885ZM106.567 66.5661C106.202 68.1626 104.804 69.2775 103.166 69.2775H46.4601C44.8223 69.2775 43.4238 68.1626 43.0588 66.5658L31.1173 14.3497H118.509L106.567 66.5661ZM30.034 8.69653L33.5701 4.57075H33.5704C33.6662 4.45885 33.8062 4.3944 33.9539 4.3944H115.672C115.82 4.3944 115.96 4.45856 116.056 4.57075L119.592 8.69682C119.696 8.81781 119.736 8.98273 119.701 9.13799L119.514 9.95588H30.1122L29.9253 9.13799C29.8899 8.98244 29.9303 8.81752 30.034 8.69653V8.69653ZM38.7751 67.5454C39.5994 71.1524 42.76 73.672 46.4601 73.672H62.9954V80.8888H54.6369C51.5268 80.8888 48.9964 83.4193 48.9964 86.5291V89.3616H46.9578C45.7377 89.3616 44.5926 89.9589 43.8939 90.959C43.1956 91.9594 43.0295 93.2404 43.4495 94.3861L44.6064 97.5378L43.5031 98.9293C37.6083 106.367 34.3616 115.69 34.3616 125.18V127.51H30.8589V32.9327L38.7751 67.5454ZM29.5507 131.904H44.1476C45.3613 131.904 46.3447 130.921 46.3447 129.707C46.3447 128.494 45.3613 127.51 44.1476 127.51H38.756V125.18C38.756 121.746 39.2312 118.336 40.1446 115.052C40.2043 115.032 40.2644 115.01 40.3233 114.984L48.9767 111.109C57.3332 107.367 66.7002 106.956 75.3528 109.951L82.3339 112.368C90.8743 115.324 100.126 115.311 108.627 112.376C110.096 116.464 110.87 120.802 110.87 125.18V127.51H53.5109C52.2972 127.51 51.3138 128.494 51.3138 129.707C51.3138 130.921 52.2972 131.904 53.5109 131.904H119.768C122.519 131.904 124.756 134.142 124.756 136.892V145.606H24.5634V136.892C24.5634 134.142 26.8008 131.904 29.5507 131.904V131.904Z" fill="white"/>
<path d="M96.3368 19.7175H67.4297C66.216 19.7175 65.2326 20.7012 65.2326 21.9146C65.2326 23.1279 66.216 24.1116 67.4297 24.1116H96.3368C96.6423 24.1116 96.8907 24.3601 96.8907 24.6653V34.1572C96.8907 34.4624 96.6423 34.7108 96.3368 34.7108H52.9827C52.6772 34.7108 52.4288 34.4624 52.4288 34.1572V24.6653C52.4288 24.3601 52.6772 24.1116 52.9827 24.1116H58.0664C59.2801 24.1116 60.2635 23.1279 60.2635 21.9146C60.2635 20.7012 59.2801 19.7175 58.0664 19.7175H52.9827C50.2546 19.7175 48.0347 21.9371 48.0347 24.6653V34.1572C48.0347 36.8853 50.2543 39.1049 52.9827 39.1049H96.3368C99.0649 39.1049 101.285 36.8853 101.285 34.1572V24.6653C101.285 21.9368 99.0649 19.7175 96.3368 19.7175V19.7175Z" fill="white"/>
<path d="M96.6004 47.6896H83.0636C80.842 47.6896 79.0345 49.497 79.0345 51.7187V58.6412C79.0345 60.8628 80.842 62.6703 83.0636 62.6703H96.6004C98.8221 62.6703 100.63 60.8628 100.63 58.6412V51.7187C100.63 49.497 98.8221 47.6896 96.6004 47.6896ZM96.2354 58.2762H83.4286V52.0837H96.2354V58.2762Z" fill="white"/>
<path d="M55.8046 52.0837C57.0183 52.0837 58.0017 51.1 58.0017 49.8866C58.0017 48.6733 57.0183 47.6896 55.8046 47.6896H54.1225C52.9089 47.6896 51.9255 48.6733 51.9255 49.8866C51.9255 51.1 52.9089 52.0837 54.1225 52.0837H55.8046Z" fill="white"/>
<path d="M68.2707 52.0837C69.4843 52.0837 70.4677 51.1 70.4677 49.8866C70.4677 48.6733 69.4843 47.6896 68.2707 47.6896H66.5886C65.375 47.6896 64.3916 48.6733 64.3916 49.8866C64.3916 51.1 65.375 52.0837 66.5886 52.0837H68.2707Z" fill="white"/>
<path d="M72.6241 56.3961H49.7692C48.5555 56.3961 47.5721 57.3798 47.5721 58.5932C47.5721 59.8065 48.5555 60.7902 49.7692 60.7902H72.6241C73.8378 60.7902 74.8212 59.8065 74.8212 58.5932C74.8212 57.3798 73.8375 56.3961 72.6241 56.3961Z" fill="white"/>
</g>
<defs>
<clipPath id="clip0">
<rect width="150" height="150" fill="white"/>
</clipPath>
</defs>
</svg>
