<svg width="150" height="150" viewBox="0 0 150 150" fill="none" xmlns="http://www.w3.org/2000/svg">
<g clip-path="url(#clip0)">
<path d="M53.3791 122.776C59.0583 122.776 63.6785 118.156 63.6785 112.477C63.6785 106.798 59.0583 102.177 53.3791 102.177C47.7 102.177 43.0797 106.798 43.0797 112.477C43.0797 118.156 47.7 122.776 53.3791 122.776ZM53.3791 106.572C56.635 106.572 59.2839 109.221 59.2839 112.477C59.2839 115.733 56.635 118.381 53.3791 118.381C50.1233 118.381 47.4744 115.733 47.4744 112.477C47.4744 109.221 50.1233 106.572 53.3791 106.572Z" fill="white"/>
<path d="M148.935 127.073L139.09 89.5147C138.782 88.341 137.581 87.639 136.407 87.9464C135.233 88.254 134.531 89.4552 134.839 90.6292L144.684 128.188C145.657 131.9 145.084 135.743 143.068 139.009C141.053 142.274 137.876 144.511 134.121 145.306C127.68 146.671 121.108 143.276 118.491 137.236L118.234 136.645C117.752 135.532 116.458 135.02 115.344 135.503C114.231 135.985 113.719 137.279 114.202 138.392L114.458 138.984C117.393 145.756 124.105 150.001 131.269 150.001C132.515 150.001 133.776 149.872 135.032 149.606C139.973 148.559 144.156 145.615 146.808 141.317C149.46 137.018 150.216 131.959 148.935 127.073V127.073Z" fill="white"/>
<path d="M7.28649 112.003C7.47341 112.052 7.66062 112.075 7.8452 112.075C8.81994 112.075 9.7106 111.421 9.9693 110.434L19.236 75.0842C20.0633 71.928 22.9199 69.7239 26.1828 69.7239H42.2489C44.1673 69.7239 45.9706 70.471 47.3271 71.8272C48.4322 72.9323 49.9018 73.5411 51.4646 73.5411H98.5347C100.097 73.5411 101.567 72.9323 102.672 71.8272C104.029 70.471 105.832 69.7239 107.75 69.7239H123.816C127.079 69.7239 129.936 71.928 130.763 75.0842L132.444 81.497C132.752 82.6706 133.953 83.3732 135.127 83.0653C136.301 82.7577 137.003 81.5564 136.696 80.3825L135.014 73.9697C134.003 70.1094 131.106 67.1342 127.471 65.9228V62.613C127.471 59.946 125.301 57.7762 122.634 57.7762H110.39C107.723 57.7762 105.553 59.946 105.553 62.613V65.5378C103.299 65.9688 101.224 67.0607 99.5651 68.7195C99.29 68.9947 98.9241 69.1464 98.535 69.1464H83.8104L82.0188 54.7693C81.7432 52.5573 79.854 50.8891 77.625 50.8891H77.3441V18.0552C77.3441 14.9329 79.8842 12.3927 83.0065 12.3927C86.1288 12.3927 88.6689 14.9329 88.6689 18.0552V36.599C88.6689 41.6309 92.7627 45.7247 97.7946 45.7247C102.827 45.7247 106.92 41.6309 106.92 36.599V2.19735C106.92 0.983826 105.937 0 104.723 0C103.509 0 102.526 0.983826 102.526 2.19735V36.599C102.526 39.2077 100.403 41.33 97.7946 41.33C95.1859 41.33 93.0636 39.2077 93.0636 36.599V18.0552C93.0636 12.5096 88.552 7.99805 83.0065 7.99805C77.461 7.99805 72.9494 12.5096 72.9494 18.0552V50.8891H72.6684C70.4394 50.8891 68.5503 52.557 68.2746 54.7693L66.483 69.1461H51.4646C51.0755 69.1461 50.7099 68.9944 50.4345 68.7192C48.7753 67.0601 46.701 65.9685 44.4463 65.5375V62.6127C44.4463 59.9457 42.2765 57.7759 39.6098 57.7759H27.3653C24.6983 57.7759 22.5288 59.9457 22.5288 62.6127V65.9225C18.8932 67.1339 15.9971 70.1091 14.9851 73.9694L5.71817 109.32C5.41054 110.494 6.11281 111.695 7.28649 112.003V112.003ZM110.39 62.1709H122.634C122.878 62.1709 123.076 62.3692 123.076 62.613V65.3292H109.948V62.613C109.948 62.3692 110.146 62.1709 110.39 62.1709V62.1709ZM72.635 55.3128C72.6371 55.2961 72.6511 55.2838 72.6678 55.2838H77.6247C77.6414 55.2838 77.6555 55.2961 77.6576 55.3128L79.3814 69.1464H70.9111L72.635 55.3128ZM27.3653 62.1709H39.6098C39.8535 62.1709 40.0516 62.3692 40.0516 62.613V65.3292H26.9232V62.613C26.9232 62.3692 27.1215 62.1709 27.3653 62.1709V62.1709Z" fill="white"/>
<path d="M96.6209 122.776C102.3 122.776 106.92 118.156 106.92 112.477C106.92 106.798 102.3 102.177 96.6209 102.177C90.9418 102.177 86.3215 106.798 86.3215 112.477C86.3215 118.156 90.9418 122.776 96.6209 122.776ZM96.6209 106.572C99.8768 106.572 102.526 109.221 102.526 112.477C102.526 115.733 99.8768 118.381 96.6209 118.381C93.365 118.381 90.7162 115.733 90.7162 112.477C90.7162 109.221 93.365 106.572 96.6209 106.572Z" fill="white"/>
<path d="M114.487 127.995L112.412 123.206C113.653 121.375 114.595 119.306 115.151 117.056C115.442 115.878 114.723 114.687 113.545 114.395C112.367 114.104 111.176 114.823 110.884 116.001C109.259 122.578 103.393 127.171 96.6206 127.171C92.0967 127.171 87.8886 125.124 85.0754 121.556C83.7769 119.909 82.8631 118.04 82.3592 116.001C82.068 114.823 80.877 114.104 79.6987 114.396C78.5206 114.687 77.8016 115.878 78.0931 117.056C78.4084 118.331 78.8502 119.554 79.4083 120.719H70.5929C71.1522 119.553 71.5943 118.33 71.9092 117.056C72.2004 115.878 71.4818 114.687 70.3034 114.395C69.125 114.104 67.9344 114.823 67.6428 116.001C67.1395 118.037 66.2248 119.905 64.924 121.555C62.1108 125.124 57.903 127.171 53.3788 127.171C46.606 127.171 40.7406 122.578 39.1151 116.001C38.8242 114.823 37.6335 114.104 36.4546 114.395C35.2765 114.686 34.5575 115.877 34.8488 117.056C35.4048 119.306 36.3465 121.375 37.5878 123.205L31.5085 137.236C28.8913 143.276 22.318 146.67 15.878 145.306C12.1238 144.511 8.94643 142.274 6.93132 139.008C4.9162 135.742 4.34225 131.899 5.31524 128.187L7.58905 119.513C7.89668 118.339 7.1947 117.138 6.02073 116.831C4.84677 116.523 3.64584 117.225 3.33792 118.399L1.06411 127.073C-0.216801 131.959 0.538794 137.017 3.19114 141.316C5.84348 145.614 10.0258 148.558 14.9672 149.605C16.224 149.871 17.4836 150 18.7305 150C25.8938 149.999 32.6069 145.755 35.5408 138.983L40.8012 126.843C44.1884 129.809 48.6091 131.565 53.3785 131.565C58.8933 131.565 64.0448 129.227 67.6762 125.113H82.3226C85.9541 129.227 91.1055 131.565 96.6203 131.565C101.39 131.565 105.81 129.809 109.198 126.843L110.454 129.742C110.937 130.856 112.231 131.367 113.344 130.885C114.458 130.403 114.97 129.109 114.487 127.995V127.995Z" fill="white"/>
<path d="M71.136 111.552H78.8637C81.3185 111.552 83.3158 109.555 83.3158 107.1V103.593C83.3158 101.138 81.3185 99.1405 78.8637 99.1405H71.136C68.6812 99.1405 66.6839 101.138 66.6839 103.593V107.1C66.6839 109.554 68.6812 111.552 71.136 111.552ZM71.0786 103.593C71.0786 103.561 71.1044 103.535 71.136 103.535H78.8637C78.8953 103.535 78.9211 103.561 78.9211 103.593V107.099C78.9211 107.131 78.8953 107.157 78.8637 107.157H71.136C71.1044 107.157 71.0786 107.131 71.0786 107.099V103.593Z" fill="white"/>
<path d="M67.417 91.1547C67.417 89.9412 66.4332 88.9574 65.2198 88.9574H63.6509C62.4374 88.9574 61.4537 89.9412 61.4537 91.1547C61.4537 92.3681 62.4374 93.3519 63.6509 93.3519H65.2198C66.4332 93.3519 67.417 92.3681 67.417 91.1547Z" fill="white"/>
<path d="M86.3489 93.3519C87.5623 93.3519 88.5461 92.3681 88.5461 91.1547C88.5461 89.9412 87.5623 88.9574 86.3489 88.9574H84.78C83.5665 88.9574 82.5828 89.9412 82.5828 91.1547C82.5828 92.3681 83.5665 93.3519 84.78 93.3519H86.3489Z" fill="white"/>
<path d="M95.8565 85.0271C97.07 85.0271 98.0538 84.0433 98.0538 82.8298C98.0538 81.6163 97.07 80.6324 95.8565 80.6324H54.4362C53.2227 80.6324 52.2389 81.6163 52.2389 82.8298C52.2389 84.0433 53.2227 85.0271 54.4362 85.0271H95.8565Z" fill="white"/>
<path d="M29.237 104.306H35.5677C37.444 104.306 38.9701 102.78 38.9701 100.904V98.3744H41.4997C43.3756 98.3744 44.9021 96.8483 44.9021 94.972V88.6413C44.9021 86.7654 43.3759 85.239 41.4997 85.239H38.9701V82.7094C38.9701 80.8334 37.444 79.307 35.5677 79.307H29.237C27.3611 79.307 25.8347 80.8331 25.8347 82.7094V85.239H23.3051C21.4291 85.239 19.9027 86.7651 19.9027 88.6413V94.972C19.9027 96.848 21.4288 98.3744 23.3051 98.3744H25.8347V100.904C25.8347 102.78 27.3611 104.306 29.237 104.306V104.306ZM24.2977 93.9797V89.6337H28.0323C29.2458 89.6337 30.2296 88.6498 30.2296 87.4363V83.7017H34.5757V87.4363C34.5757 88.6498 35.5595 89.6337 36.7731 89.6337H40.5077V93.9797H36.7731C35.5595 93.9797 34.5757 94.9635 34.5757 96.1771V99.9117H30.2296V96.1771C30.2296 94.9635 29.2458 93.9797 28.0323 93.9797H24.2977Z" fill="white"/>
<path d="M120.294 83.9194V83.4126C120.294 82.1991 119.31 81.2153 118.097 81.2153C116.883 81.2153 115.9 82.1991 115.9 83.4126V83.9194C115.9 85.1329 116.883 86.1167 118.097 86.1167C119.31 86.1167 120.294 85.1329 120.294 83.9194Z" fill="white"/>
<path d="M125.274 88.0515C124.06 88.0515 123.077 89.0353 123.077 90.2488C123.077 91.4623 124.06 92.446 125.274 92.446H125.781C126.994 92.446 127.978 91.4623 127.978 90.2488C127.978 89.0353 126.994 88.0515 125.781 88.0515H125.274Z" fill="white"/>
<path d="M118.945 100.13C120.158 100.13 121.142 99.146 121.142 97.9325V97.4257C121.142 96.2122 120.158 95.2284 118.945 95.2284C117.731 95.2284 116.747 96.2122 116.747 97.4257V97.9325C116.747 99.146 117.731 100.13 118.945 100.13Z" fill="white"/>
<path d="M111.261 88.8994C110.048 88.8994 109.064 89.8832 109.064 91.0967C109.064 92.3102 110.048 93.2939 111.261 93.2939H111.768C112.981 93.2939 113.965 92.3102 113.965 91.0967C113.965 89.8832 112.981 88.8994 111.768 88.8994H111.261Z" fill="white"/>
</g>
<defs>
<clipPath id="clip0">
<rect width="150" height="150" fill="white"/>
</clipPath>
</defs>
</svg>
