<svg width="150" height="150" viewBox="0 0 150 150" fill="none" xmlns="http://www.w3.org/2000/svg">
<g clip-path="url(#clip0)">
<path d="M80.5006 20.3244C78.6478 20.1695 76.7972 20.0908 75 20.0908C57.6997 20.0908 41.4348 26.8279 29.2015 39.0612C16.9682 51.2944 10.2312 67.5593 10.2312 84.8596V88.2049H4.38479V85.3969C4.38479 79.5117 5.10009 73.6399 6.51053 67.9443C6.80168 66.7689 6.08462 65.5803 4.9095 65.2892C3.73408 64.9983 2.54551 65.7151 2.25436 66.8905C0.758568 72.9304 0 79.1568 0 85.3969V88.746C0 90.8653 1.7241 92.5897 3.8437 92.5897H5.11558V101.74C2.20496 102.671 0.0912035 105.401 0.0912035 108.616V131.424C0.0912035 135.403 3.32864 138.64 7.30798 138.64C10.1923 138.64 12.6858 136.939 13.8401 134.487H18.4345V138.588C18.4345 144.819 23.5033 149.887 29.7335 149.887H37.2768C40.4812 149.887 43.0884 147.28 43.0884 144.076V95.9637C43.0884 92.7593 40.4815 90.1521 37.2768 90.1521H29.7335C23.5033 90.1521 18.4345 95.2209 18.4345 101.451V105.552H13.8401C12.9915 103.75 11.4197 102.354 9.50037 101.741V92.59H10.7722C12.8916 92.59 14.616 90.8659 14.616 88.7463V84.8599C14.616 68.7309 20.897 53.5672 32.3018 42.1621C43.707 30.757 58.8707 24.4762 74.9997 24.4762C76.6753 24.4762 78.4032 24.5496 80.1349 24.6946C81.3439 24.7977 82.4015 23.8992 82.5024 22.6925C82.6032 21.4858 81.7073 20.4255 80.5006 20.3244V20.3244ZM38.7036 95.9637V144.076C38.7036 144.862 38.0637 145.502 37.2768 145.502H31.9259V94.5366H37.2768C38.0637 94.5369 38.7036 95.177 38.7036 95.9637V95.9637ZM22.8193 101.451C22.8193 98.4048 24.8003 95.8143 27.5411 94.8952V145.144C24.8003 144.225 22.8193 141.635 22.8193 138.588V101.451ZM18.4345 130.102H14.5247V109.937H18.4345V130.102ZM10.14 131.424C10.14 132.985 8.86954 134.256 7.30798 134.256C5.74641 134.256 4.47599 132.985 4.47599 131.424V108.616C4.47599 107.054 5.74641 105.784 7.30798 105.784C8.86954 105.784 10.14 107.054 10.14 108.616V131.424Z" fill="white"/>
<path d="M80.5017 10.0657C78.7189 9.93416 76.9422 9.86488 75.2213 9.85991C75.147 9.85991 75.0742 9.85962 75 9.85962C55.113 9.85962 36.3876 17.5549 22.2534 31.5418C14.7525 38.9647 8.99904 47.7711 5.15271 57.7169C4.71598 58.8461 5.27723 60.1157 6.40675 60.5524C6.66663 60.653 6.9341 60.7006 7.19689 60.7006C8.07619 60.7006 8.90608 60.1677 9.24225 59.2987C12.8641 49.9333 18.2796 41.6435 25.3376 34.6585C38.6949 21.4407 56.3997 14.2038 75.2084 14.2447C76.8264 14.2494 78.4988 14.3146 80.179 14.4385C81.3875 14.5294 82.4378 13.6212 82.5266 12.4133C82.6161 11.2057 81.7093 10.1549 80.5017 10.0657V10.0657Z" fill="white"/>
<path d="M143.366 59.6232C142.217 60.007 141.597 61.2494 141.981 62.3976C144.392 69.6114 145.615 77.1688 145.615 84.8597V88.205H139.769V84.8597C139.769 77.0831 138.411 69.4843 135.734 62.2739C135.312 61.1389 134.05 60.5598 132.915 60.9819C131.78 61.4034 131.202 62.6651 131.623 63.8004C134.118 70.5208 135.384 77.6064 135.384 84.8597V88.7461C135.384 90.8654 137.108 92.5898 139.227 92.5898H140.499V101.741C138.58 102.354 137.008 103.75 136.16 105.552H131.565V101.451C131.565 95.2209 126.496 90.1521 120.266 90.1521H112.723C109.518 90.1521 106.911 92.7593 106.911 95.9637V130.212C106.911 131.423 107.893 132.405 109.103 132.405C110.314 132.405 111.296 131.423 111.296 130.212V95.9637C111.296 95.1771 111.936 94.5369 112.723 94.5369H118.074V145.503H112.723C111.936 145.503 111.296 144.863 111.296 144.076V139.556C111.296 138.345 110.314 137.363 109.103 137.363C107.893 137.363 106.911 138.345 106.911 139.556V144.076C106.911 147.28 109.518 149.888 112.723 149.888H120.266C126.496 149.888 131.565 144.819 131.565 138.589V134.487H136.16C137.314 136.939 139.807 138.641 142.692 138.641C146.671 138.641 149.908 135.403 149.908 131.424V108.616C149.908 105.401 147.795 102.671 144.884 101.741V92.5898H146.156C148.275 92.5898 150 90.8657 150 88.7461V84.8597C150 76.6952 148.701 68.6702 146.14 61.0076C145.756 59.8591 144.514 59.2397 143.366 59.6232V59.6232ZM127.181 138.589C127.181 141.635 125.2 144.225 122.459 145.144V94.8953C125.2 95.8143 127.181 98.4049 127.181 101.451V138.589ZM131.565 109.937H135.475V130.102H131.565V109.937ZM145.524 131.424C145.524 132.985 144.254 134.256 142.692 134.256C141.13 134.256 139.86 132.985 139.86 131.424V108.616C139.86 107.054 141.13 105.784 142.692 105.784C144.254 105.784 145.524 107.054 145.524 108.616V131.424Z" fill="white"/>
<path d="M147.808 15.7823C149.018 15.7823 150 14.8007 150 13.5899V13.1497C150 5.96098 144.152 0.112549 136.963 0.112549H99.9319C92.7435 0.112549 86.8951 5.96098 86.8951 13.1497V43.4231C86.8951 49.8804 91.614 55.2562 97.7842 56.2834V65.2023C97.7842 66.7321 98.7094 68.0694 100.141 68.609C100.567 68.7695 101.006 68.8473 101.438 68.8473C102.46 68.8473 103.45 68.4126 104.16 67.6052L113.953 56.46H136.963C144.152 56.46 150 50.6115 150 43.4228V22.933C150 21.7222 149.018 20.7406 147.808 20.7406C146.597 20.7406 145.615 21.7222 145.615 22.933V43.4228C145.615 48.1938 141.734 52.0752 136.963 52.0752H112.961C112.33 52.0752 111.73 52.3467 111.314 52.8203L102.169 63.2277V54.2676C102.169 53.0568 101.187 52.0752 99.9766 52.0752H99.9319C95.1613 52.0752 91.2798 48.1938 91.2798 43.4228V13.1494C91.2798 8.37845 95.1613 4.49704 99.9319 4.49704H136.963C141.734 4.49704 145.615 8.37845 145.615 13.1494V13.5896C145.615 14.8007 146.597 15.7823 147.808 15.7823V15.7823Z" fill="white"/>
<path d="M136.134 14.3628C136.134 13.1377 135.576 12.0084 134.602 11.2651C133.629 10.5217 132.392 10.2802 131.21 10.603L115.418 14.9138C113.728 15.3754 112.547 16.9214 112.547 18.6736V33.6608C110.545 33.1478 108.171 33.5111 106.098 34.8409C102.528 37.13 101.182 41.4239 103.099 44.4129C104.223 46.1659 106.223 47.0864 108.405 47.0864C109.944 47.0864 111.573 46.6286 113.049 45.6821C115.423 44.16 116.812 41.7513 116.913 39.4294C116.924 39.3394 116.932 39.2485 116.932 39.1552V29.4643L131.749 25.4194V30.9545C131.386 30.8604 131.009 30.794 130.62 30.7598C128.83 30.6028 126.942 31.0966 125.3 32.1498C123.657 33.203 122.42 34.7137 121.817 36.4039C121.152 38.2663 121.328 40.2046 122.301 41.7218C123.274 43.2389 124.961 44.2082 126.932 44.3813C127.149 44.4003 127.368 44.4096 127.588 44.4096C129.175 44.4096 130.808 43.9162 132.251 42.991C133.894 41.9378 135.131 40.4271 135.735 38.7369C135.993 38.0125 136.123 37.2771 136.13 36.5588C136.131 36.5284 136.134 36.4986 136.134 36.4679V14.3628H136.134ZM110.682 41.9907C109.042 43.0422 107.314 42.8636 106.79 42.0457C106.266 41.2275 106.824 39.5832 108.465 38.5314C109.258 38.0228 110.072 37.8021 110.76 37.8021C111.495 37.8021 112.086 38.0541 112.357 38.4765C112.881 39.2947 112.322 40.9392 110.682 41.9907V41.9907ZM116.932 24.919V19.0454L131.749 15.0009V20.8745L116.932 24.919ZM131.605 37.2625C131.33 38.0327 130.703 38.7755 129.884 39.3002C129.066 39.8249 128.13 40.0857 127.315 40.0132C126.958 39.9819 126.312 39.8547 125.992 39.3552C125.671 38.8556 125.826 38.2157 125.946 37.8787C126.221 37.1084 126.848 36.3656 127.666 35.8412C128.396 35.3735 129.218 35.1162 129.966 35.1162C130.057 35.1162 130.147 35.12 130.236 35.1279C130.593 35.1592 131.238 35.2864 131.558 35.7859C131.879 36.2858 131.725 36.9257 131.605 37.2625V37.2625Z" fill="white"/>
</g>
<defs>
<clipPath id="clip0">
<rect width="150" height="150" fill="white"/>
</clipPath>
</defs>
</svg>
