<svg width="150" height="150" viewBox="0 0 150 150" fill="none" xmlns="http://www.w3.org/2000/svg">
<g clip-path="url(#clip0)">
<path d="M15.8914 122.617H65.8285C69.2053 122.617 72.4181 121.35 74.8873 119.049L75.1689 119.297C77.5977 121.438 80.7183 122.617 83.9563 122.617H84.3972C85.6101 122.617 86.593 121.634 86.593 120.421C86.593 119.208 85.6101 118.225 84.3972 118.225H83.9563C81.7884 118.225 79.6989 117.436 78.0723 116.002L77.0359 115.089L77.1943 17.871C79.1748 15.9206 81.7898 14.7258 84.5699 14.5065C85.7791 14.4111 86.6817 13.3536 86.5862 12.1451C86.4908 10.9365 85.4321 10.0325 84.2248 10.1288C80.8158 10.3978 77.5878 11.7378 74.9997 13.9321C72.0697 11.4378 68.3905 10.0743 64.4996 10.0743H32.4353C31.2224 10.0743 30.2395 11.0572 30.2395 12.2701C30.2395 13.483 31.2224 14.4658 32.4353 14.4658H64.4994C67.6296 14.4658 70.5745 15.6723 72.8028 17.8654L72.6441 115.13L71.9342 115.8C70.2759 117.364 68.1074 118.225 65.8285 118.225H16.1502V14.4661H23.0776C24.2905 14.4661 25.2733 13.4833 25.2733 12.2704C25.2733 11.0574 24.2905 10.0746 23.0776 10.0746H15.8914C13.6125 10.0746 11.7587 11.9284 11.7587 14.2073V17.6526H2.94816C1.32272 17.6523 0 18.975 0 20.601V130.658C0 132.284 1.32272 133.606 2.94816 133.606H84.3969C85.6098 133.606 86.5927 132.623 86.5927 131.41C86.5927 130.198 85.6098 129.215 84.3969 129.215H4.39149V22.0438H11.7587V118.483C11.7587 120.763 13.6125 122.617 15.8914 122.617Z" fill="white"/>
<path d="M147.804 110.964C146.591 110.964 145.609 111.946 145.609 113.159V129.215H115.954C114.741 129.215 113.758 130.197 113.758 131.41C113.758 132.623 114.741 133.606 115.954 133.606H147.052C148.678 133.606 150 132.283 150 130.658V113.159C150 111.946 149.017 110.964 147.804 110.964V110.964Z" fill="white"/>
<path d="M147.052 17.6523H138.241V14.2073C138.241 11.9284 136.387 10.0746 134.108 10.0746H115.954C114.741 10.0746 113.758 11.0574 113.758 12.2703C113.758 13.4833 114.741 14.4661 115.954 14.4661H133.85V118.225H115.954C114.741 118.225 113.758 119.208 113.758 120.421C113.758 121.634 114.741 122.617 115.954 122.617H134.108C136.387 122.617 138.241 120.763 138.241 118.484V22.0438H145.608V103.802C145.608 105.015 146.591 105.997 147.804 105.997C149.017 105.997 150 105.015 150 103.802V20.601C150 18.975 148.677 17.6523 147.052 17.6523V17.6523Z" fill="white"/>
<path d="M105.339 7.9386H95.0126C92.7914 7.9386 90.9842 9.74585 90.9842 11.9671V139.128C90.9842 140.137 91.4927 141.062 92.3446 141.603C93.1966 142.144 94.2511 142.21 95.1643 141.78L100.175 139.419L105.187 141.78C105.586 141.968 106.012 142.061 106.437 142.061C106.983 142.061 107.527 141.907 108.006 141.603C108.858 141.062 109.366 140.137 109.366 139.128V32.8223C109.366 31.6093 108.384 30.6265 107.171 30.6265C105.958 30.6265 104.975 31.6093 104.975 32.8223V136.826L101.111 135.005C100.519 134.726 99.8319 134.726 99.2393 135.005L95.3754 136.826V12.3301H104.975V23.4649C104.975 24.6778 105.958 25.6606 107.171 25.6606C108.384 25.6606 109.366 24.6778 109.366 23.4649V11.9668C109.367 9.74585 107.56 7.9386 105.339 7.9386V7.9386Z" fill="white"/>
<path d="M64.6495 31.8881H24.7651C23.5522 31.8881 22.5694 32.8709 22.5694 34.0838C22.5694 35.2967 23.5522 36.2796 24.7651 36.2796H64.6495C65.8625 36.2796 66.8453 35.2967 66.8453 34.0838C66.8453 32.8709 65.8625 31.8881 64.6495 31.8881Z" fill="white"/>
<path d="M64.6495 45.0807H40.2586C39.0457 45.0807 38.0628 46.0635 38.0628 47.2764C38.0628 48.4894 39.0457 49.4722 40.2586 49.4722H64.6495C65.8625 49.4722 66.8453 48.4894 66.8453 47.2764C66.8453 46.0635 65.8625 45.0807 64.6495 45.0807V45.0807Z" fill="white"/>
<path d="M64.6495 58.2731H24.7651C23.5522 58.2731 22.5694 59.2559 22.5694 60.4688C22.5694 61.6817 23.5522 62.6646 24.7651 62.6646H64.6495C65.8625 62.6646 66.8453 61.6817 66.8453 60.4688C66.8453 59.2559 65.8625 58.2731 64.6495 58.2731Z" fill="white"/>
<path d="M64.6495 71.4659H24.7651C23.5522 71.4659 22.5694 72.4488 22.5694 73.6617C22.5694 74.8746 23.5522 75.8574 24.7651 75.8574H64.6495C65.8625 75.8574 66.8453 74.8746 66.8453 73.6617C66.8453 72.4488 65.8625 71.4659 64.6495 71.4659Z" fill="white"/>
<path d="M24.7651 89.0498H51.1504C52.3633 89.0498 53.3461 88.067 53.3461 86.8541C53.3461 85.6411 52.3633 84.6583 51.1504 84.6583H24.7651C23.5522 84.6583 22.5694 85.6411 22.5694 86.8541C22.5694 88.067 23.5522 89.0498 24.7651 89.0498Z" fill="white"/>
<path d="M24.7651 102.242H64.6495C65.8625 102.242 66.8453 101.26 66.8453 100.047C66.8453 98.8338 65.8625 97.851 64.6495 97.851H24.7651C23.5522 97.851 22.5694 98.8338 22.5694 100.047C22.5694 101.26 23.5522 102.242 24.7651 102.242Z" fill="white"/>
<path d="M24.7651 49.4722H30.7481C31.961 49.4722 32.9438 48.4894 32.9438 47.2764C32.9438 46.0635 31.961 45.0807 30.7481 45.0807H24.7651C23.5522 45.0807 22.5694 46.0635 22.5694 47.2764C22.5694 48.4894 23.5522 49.4722 24.7651 49.4722Z" fill="white"/>
<path d="M64.6495 84.6583H60.0472C58.8343 84.6583 57.8515 85.6411 57.8515 86.8541C57.8515 88.067 58.8343 89.0498 60.0472 89.0498H64.6495C65.8625 89.0498 66.8453 88.067 66.8453 86.8541C66.8453 85.6411 65.8625 84.6583 64.6495 84.6583Z" fill="white"/>
<path d="M116.688 36.2793H125.527C126.74 36.2793 127.723 35.2965 127.723 34.0836C127.723 32.8706 126.74 31.8878 125.527 31.8878H116.688C115.475 31.8878 114.492 32.8706 114.492 34.0836C114.492 35.2965 115.475 36.2793 116.688 36.2793Z" fill="white"/>
<path d="M116.688 49.4719H125.527C126.74 49.4719 127.723 48.4891 127.723 47.2762C127.723 46.0633 126.74 45.0804 125.527 45.0804H116.688C115.475 45.0804 114.492 46.0633 114.492 47.2762C114.492 48.4891 115.475 49.4719 116.688 49.4719Z" fill="white"/>
<path d="M116.688 62.6646H125.527C126.74 62.6646 127.723 61.6817 127.723 60.4688C127.723 59.2559 126.74 58.2731 125.527 58.2731H116.688C115.475 58.2731 114.492 59.2559 114.492 60.4688C114.492 61.6817 115.475 62.6646 116.688 62.6646Z" fill="white"/>
<path d="M116.688 75.8572H125.527C126.74 75.8572 127.723 74.8744 127.723 73.6614C127.723 72.4485 126.74 71.4657 125.527 71.4657H116.688C115.475 71.4657 114.492 72.4485 114.492 73.6614C114.492 74.8744 115.475 75.8572 116.688 75.8572Z" fill="white"/>
<path d="M116.688 102.242H125.527C126.74 102.242 127.723 101.259 127.723 100.046C127.723 98.8334 126.74 97.8506 125.527 97.8506H116.688C115.475 97.8506 114.492 98.8334 114.492 100.046C114.492 101.259 115.475 102.242 116.688 102.242Z" fill="white"/>
<path d="M116.688 89.0498H125.527C126.74 89.0498 127.723 88.067 127.723 86.8541C127.723 85.6411 126.74 84.6583 125.527 84.6583H116.688C115.475 84.6583 114.492 85.6411 114.492 86.8541C114.492 88.067 115.475 89.0498 116.688 89.0498Z" fill="white"/>
</g>
<defs>
<clipPath id="clip0">
<rect width="150" height="150" fill="white"/>
</clipPath>
</defs>
</svg>
