<svg id="Capa_1" enable-background="new 0 0 512.354 512.354" height="512" viewBox="0 0 512.354 512.354" width="512" xmlns="http://www.w3.org/2000/svg"><g><path d="m54.28 418.821h170.57c11.534 0 22.508-4.328 30.942-12.186l.962.848c8.296 7.312 18.955 11.338 30.015 11.338h1.506c4.143 0 7.5-3.357 7.5-7.5s-3.357-7.5-7.5-7.5h-1.506c-7.405 0-14.542-2.696-20.098-7.592l-3.54-3.12.541-332.067c6.765-6.662 15.697-10.743 25.193-11.492 4.13-.326 7.213-3.938 6.887-8.066s-3.942-7.216-8.066-6.887c-11.644.919-22.67 5.496-31.51 12.991-10.008-8.52-22.575-13.177-35.865-13.177h-109.522c-4.143 0-7.5 3.357-7.5 7.5s3.357 7.5 7.5 7.5h109.521c10.692 0 20.751 4.121 28.362 11.612l-.542 332.227-2.425 2.287c-5.664 5.342-13.071 8.283-20.855 8.283h-169.686v-354.408h23.662c4.143 0 7.5-3.357 7.5-7.5s-3.357-7.5-7.5-7.5h-24.546c-7.784 0-14.116 6.332-14.116 14.116v11.768h-30.094c-5.552-.001-10.07 4.517-10.07 10.071v375.921c0 5.553 4.518 10.07 10.07 10.07h278.204c4.143 0 7.5-3.357 7.5-7.5s-3.357-7.5-7.5-7.5h-273.274v-366.063h25.164v329.408c0 7.785 6.332 14.118 14.116 14.118z"/><path d="m504.854 379.018c-4.143 0-7.5 3.357-7.5 7.5v54.84h-101.29c-4.143 0-7.5 3.357-7.5 7.5s3.357 7.5 7.5 7.5h106.22c5.553 0 10.07-4.518 10.07-10.07v-59.77c0-4.143-3.358-7.5-7.5-7.5z"/><path d="m502.283 60.295h-30.094v-11.767c0-7.784-6.332-14.116-14.116-14.116h-62.01c-4.143 0-7.5 3.357-7.5 7.5s3.357 7.5 7.5 7.5h61.126v354.409h-61.126c-4.143 0-7.5 3.357-7.5 7.5s3.357 7.5 7.5 7.5h62.01c7.784 0 14.116-6.333 14.116-14.117v-329.409h25.164v279.26c0 4.143 3.357 7.5 7.5 7.5s7.5-3.357 7.5-7.5v-284.188c.001-5.554-4.517-10.072-10.07-10.072z"/><path d="m359.804 27.116h-35.27c-7.587 0-13.76 6.173-13.76 13.76v434.344c0 3.446 1.737 6.606 4.647 8.453 2.91 1.848 6.512 2.073 9.631.604l17.116-8.063 17.118 8.064c1.364.642 2.82.96 4.271.96 1.865 0 3.721-.526 5.358-1.565 2.91-1.847 4.647-5.007 4.647-8.453v-363.109c0-4.143-3.357-7.5-7.5-7.5s-7.5 3.357-7.5 7.5v355.244l-13.198-6.218c-2.023-.953-4.369-.953-6.393 0l-13.198 6.218v-425.239h32.789v38.033c0 4.143 3.357 7.5 7.5 7.5s7.5-3.357 7.5-7.5v-39.274c.001-7.586-6.171-13.759-13.758-13.759z"/><path d="m220.823 108.92h-136.233c-4.143 0-7.5 3.357-7.5 7.5s3.357 7.5 7.5 7.5h136.233c4.143 0 7.5-3.357 7.5-7.5s-3.357-7.5-7.5-7.5z"/><path d="m220.823 153.982h-83.312c-4.143 0-7.5 3.357-7.5 7.5s3.357 7.5 7.5 7.5h83.312c4.143 0 7.5-3.357 7.5-7.5s-3.357-7.5-7.5-7.5z"/><path d="m220.823 199.043h-136.233c-4.143 0-7.5 3.357-7.5 7.5s3.357 7.5 7.5 7.5h136.233c4.143 0 7.5-3.357 7.5-7.5s-3.357-7.5-7.5-7.5z"/><path d="m220.823 244.106h-136.233c-4.143 0-7.5 3.357-7.5 7.5s3.357 7.5 7.5 7.5h136.233c4.143 0 7.5-3.357 7.5-7.5s-3.357-7.5-7.5-7.5z"/><path d="m84.59 304.167h90.124c4.143 0 7.5-3.357 7.5-7.5s-3.357-7.5-7.5-7.5h-90.124c-4.143 0-7.5 3.357-7.5 7.5s3.357 7.5 7.5 7.5z"/><path d="m84.59 349.229h136.233c4.143 0 7.5-3.357 7.5-7.5s-3.357-7.5-7.5-7.5h-136.233c-4.143 0-7.5 3.357-7.5 7.5s3.357 7.5 7.5 7.5z"/><path d="m84.59 168.982h20.436c4.143 0 7.5-3.357 7.5-7.5s-3.357-7.5-7.5-7.5h-20.436c-4.143 0-7.5 3.357-7.5 7.5s3.357 7.5 7.5 7.5z"/><path d="m220.823 289.167h-15.72c-4.143 0-7.5 3.357-7.5 7.5s3.357 7.5 7.5 7.5h15.72c4.143 0 7.5-3.357 7.5-7.5s-3.357-7.5-7.5-7.5z"/><path d="m398.57 123.919h30.192c4.143 0 7.5-3.357 7.5-7.5s-3.357-7.5-7.5-7.5h-30.192c-4.143 0-7.5 3.357-7.5 7.5s3.358 7.5 7.5 7.5z"/><path d="m398.57 168.981h30.192c4.143 0 7.5-3.357 7.5-7.5s-3.357-7.5-7.5-7.5h-30.192c-4.143 0-7.5 3.357-7.5 7.5s3.358 7.5 7.5 7.5z"/><path d="m398.57 214.043h30.192c4.143 0 7.5-3.357 7.5-7.5s-3.357-7.5-7.5-7.5h-30.192c-4.143 0-7.5 3.357-7.5 7.5s3.358 7.5 7.5 7.5z"/><path d="m398.57 259.105h30.192c4.143 0 7.5-3.357 7.5-7.5s-3.357-7.5-7.5-7.5h-30.192c-4.143 0-7.5 3.357-7.5 7.5s3.358 7.5 7.5 7.5z"/><path d="m398.57 349.228h30.192c4.143 0 7.5-3.357 7.5-7.5s-3.357-7.5-7.5-7.5h-30.192c-4.143 0-7.5 3.357-7.5 7.5s3.358 7.5 7.5 7.5z"/><path d="m398.57 304.167h30.192c4.143 0 7.5-3.357 7.5-7.5s-3.357-7.5-7.5-7.5h-30.192c-4.143 0-7.5 3.357-7.5 7.5s3.358 7.5 7.5 7.5z"/></g></svg>